<?xml version="1.0" encoding="utf-8"?>
<!DOCTYPE svg PUBLIC "-//W3C//DTD SVG 1.1//EN" "http://www.w3.org/Graphics/SVG/1.1/DTD/svg11.dtd">
<svg version="1.1" xmlns="http://www.w3.org/2000/svg" xmlns:xlink="http://www.w3.org/1999/xlink">
<defs>
    <g id="phone">
        <path d="M287.462 198.938c-40.525-40.55-87.475-79.309-106.035-60.723-26.573 26.547-42.931 49.69-101.504 2.637s-13.594-78.438 12.16-104.192c29.696-29.671 140.391-1.562 249.831 107.853 109.389 109.415 137.549 220.135 107.827 249.831-25.728 25.753-57.088 70.707-104.166 12.16s-23.936-74.931 2.637-101.504c18.509-18.586-20.224-65.511-60.749-106.061z" />
    </g>
    <g id="mail">
        <path d="M40.806 351.079c12.493-6.733 185.575-99.686 192.025-103.143 6.425-3.456 14.771-5.12 23.168-5.12 8.423 0 16.768 1.664 23.193 5.145 6.451 3.456 179.507 96.409 192 103.143 12.519 6.707 24.346 27.776 1.382 27.776h-433.127c-22.963 0-11.162-21.069 1.357-27.801zM476.493 299.879c-14.208-7.424-188.595-98.586-197.299-103.143s-14.771-5.146-23.193-5.146c-8.397 0-14.464 0.589-23.168 5.146s-183.117 95.744-197.299 103.143c-10.009 5.222-9.933-0.896-9.933-5.607s0-187.776 0-187.776c0-10.752 14.31-24.576 25.395-24.576h410.035c11.111 0 25.37 13.824 25.37 24.55 0 0 0 183.065 0 187.776 0 4.736 0.103 10.855-9.907 5.632z" />
    </g>
    <g id="twitter">
        <path d="M491.52 376.499c-17.357-7.706-35.968-12.877-55.526-15.232 19.968 11.955 35.303 30.899 42.496 53.453-18.663-11.059-39.347-19.123-61.337-23.45-17.639 18.791-42.752 30.515-70.553 30.515-53.376 0-96.64-43.264-96.64-96.614 0-7.577 0.845-14.951 2.509-22.016-80.307 4.019-151.526 42.496-199.168 100.966-8.346-14.259-13.133-30.873-13.133-48.589 0-33.536 17.075-63.104 43.008-80.435-15.847 0.512-30.745 4.839-43.776 12.083 0-0.41 0-0.793 0-1.203 0-46.822 33.331-85.863 77.517-94.771-8.090-2.202-16.64-3.379-25.472-3.379-6.221 0-12.263 0.589-18.176 1.715 12.288-38.4 48-66.329 90.265-67.098-33.075-25.933-74.727-41.37-120.013-41.37-7.808 0-15.488 0.461-23.040 1.357 42.752-27.418 93.542-43.418 148.147-43.418 177.741 0 274.944 147.251 274.944 274.969 0 4.173-0.077 8.346-0.281 12.493 18.893 13.619 35.251 30.643 48.231 50.022z" />
    </g>
    <g id="facebook">
        <path d="M384 380.697h-73.113c-8.653 0-18.304-11.366-18.304-26.598v-52.787h91.418v-75.264h-91.418v-226.048h-86.323v226.023h-78.259v75.29h78.259v44.288c0 63.514 44.083 115.2 104.601 115.2h73.139v-80.103z" />
    </g>
    <g id="googleplus">
        <path d="M50.944 343.322c0-38.221 12.775-65.843 37.939-82.048 20.608-13.286 44.544-15.283 56.986-15.283 3.021 0 5.427 0.128 7.117 0.231 0 0-3.942-25.677 15.104-51.097l-0.87 0.026c-32.999 0-140.647-6.912-140.647-95.411 0-90.035 98.867-94.592 118.681-94.592 1.561 0 2.458 0.026 2.458 0.026 0.231 0 1.638-0.051 4.045-0.051 12.723 0 45.619 1.587 76.186 16.461 39.629 19.226 59.75 52.711 59.75 99.456 0 45.184-30.618 72.064-52.992 91.725-13.645 11.981-25.446 22.323-25.446 32.384 0 10.24 8.601 17.946 19.507 27.699 17.613 15.769 34.253 38.221 34.253 80.665 0 37.325-4.839 62.362-34.662 78.234 3.123 1.587 14.106 2.739 19.559 3.507 16.154 2.202 39.782 4.711 39.782 17.895v2.534h-117.709c-1.178-0.026-119.040-4.403-119.040-112.358zM240.973 112.589c2.253-35.993-28.544-62.567-74.778-65.92-46.951-3.456-85.632 17.69-87.885 53.683-1.075 17.28 6.502 34.202 21.376 47.693 15.104 13.645 35.789 22.067 58.342 23.757 2.662 0.154 5.299 0.281 7.936 0.281 43.443 0 72.883-25.549 75.008-59.495zM210.227 367.975c11.546-40.627-5.888-83.098-33.664-90.931-3.2-0.896-6.502-1.357-9.831-1.357-25.472 0-50.688 25.754-60.032 61.235-5.222 19.942-4.813 37.35 1.177 54.118 5.888 16.461 16.461 27.623 29.773 31.36 3.2 0.922 6.528 1.357 9.856 1.357 30.72 0 50.483-12.749 62.72-55.782zM408.601 279.501v76.8h-48.64v-76.8h-76.8v-48.64h76.8v-76.8h48.64v76.8h76.8v48.64h-76.8z" />
    </g>
    <g id="linkedin">
        <path d="M129.946 408.32c0-27.213-20.096-49.254-53.145-49.254-31.104 0-51.2 22.041-51.2 49.255 0 27.853 20.761 49.254 52.505 49.254s51.2-21.401 51.84-49.254zM28.211 3.225v316.928h98.509v-316.928h-98.509zM185.677 219.059c0 39.527-1.305 72.576-2.611 101.095h85.555l4.557-44.083h1.945c12.954 20.762 44.723 51.2 97.869 51.2 64.793 0 113.408-43.417 113.408-136.755v-187.315h-98.509v175.642c0 40.832-14.285 68.711-49.92 68.711-27.213 0-43.392-18.79-50.534-36.941-2.611-6.477-3.251-15.539-3.251-24.627v-182.784h-98.509v215.859z" />
    </g>
    <g id="star">
        <path d="M399.053 256.154c-1.024 2.355-3.277 3.687-5.632 3.687h-91.648l-40.141 103.526c-1.024 2.355-3.277 3.994-5.632 3.994s-4.608-1.639-5.632-3.994l-40.141-103.526h-91.648c-2.355 0-4.608-1.331-5.632-3.687-0.615-2.355-0.307-5.018 1.331-6.656l69.734-69.325-17.613-92.57c-0.307-2.355 0.614-4.608 2.662-5.939 1.946-1.331 4.608-1.331 6.656 0l80.281 51.815 80.281-51.815c1.024-0.615 2.355-1.024 3.277-1.024 1.024 0 2.355 0.307 3.277 1.024 1.945 1.331 2.969 3.687 2.663 5.939l-17.613 92.57 69.734 69.325c1.741 1.741 2.048 4.403 1.433 6.656z" />
    </g>
    <g id="stars">
        <use xlink:href="#star"></use>
        <use xlink:href="#star"></use>
        <use xlink:href="#star"></use>
        <use xlink:href="#star"></use>
        <use xlink:href="#star"></use>
    </g>
</defs>
</svg>
